<svg width="177" height="48" viewBox="0 0 177 48" fill="none" xmlns="http://www.w3.org/2000/svg">
<path fill-rule="evenodd" clip-rule="evenodd" d="M14.1673 8.86947C12.7866 8.86947 11.6673 9.98875 11.6673 11.3695V36.6299C11.6673 38.0106 12.7866 39.1299 14.1673 39.1299H25.834C27.2147 39.1299 28.334 38.0106 28.334 36.6299V11.3695C28.334 9.98875 27.2147 8.86947 25.834 8.86947H25.695L25.2891 9.84355C25.0303 10.4646 24.4234 10.8691 23.7507 10.8691H16.2507C15.5779 10.8691 14.971 10.4646 14.7122 9.84355L14.3063 8.86947H14.1673ZM8.33398 11.3695C8.33398 8.1478 10.9457 5.53613 14.1673 5.53613H25.834C29.0556 5.53613 31.6673 8.1478 31.6673 11.3695V36.6299C31.6673 39.8515 29.0556 42.4632 25.834 42.4632H14.1673C10.9457 42.4632 8.33398 39.8515 8.33398 36.6299V11.3695Z" fill="#7772F1"/>
<path opacity="0.6" d="M59.98 13.613C60.0827 13.613 60.1713 13.6527 60.246 13.732L60.988 14.537C60.5773 15.0457 60.071 15.4353 59.469 15.706C58.8717 15.9767 58.153 16.112 57.313 16.112C56.5617 16.112 55.885 15.9837 55.283 15.727C54.6857 15.4703 54.1747 15.1133 53.75 14.656C53.3253 14.1987 52.9987 13.6527 52.77 13.018C52.546 12.3833 52.434 11.6903 52.434 10.939C52.434 10.1783 52.56 9.483 52.812 8.853C53.064 8.21833 53.4187 7.67233 53.876 7.215C54.3333 6.75767 54.8793 6.403 55.514 6.151C56.1533 5.89433 56.858 5.766 57.628 5.766C58.3793 5.766 59.035 5.88733 59.595 6.13C60.1597 6.368 60.6427 6.68533 61.044 7.082L60.414 7.957C60.3767 8.013 60.3277 8.062 60.267 8.104C60.211 8.146 60.1317 8.167 60.029 8.167C59.9217 8.167 59.812 8.125 59.7 8.041C59.588 7.957 59.4457 7.866 59.273 7.768C59.1003 7.67 58.881 7.579 58.615 7.495C58.3537 7.411 58.02 7.369 57.614 7.369C57.138 7.369 56.6993 7.453 56.298 7.621C55.9013 7.78433 55.5583 8.02 55.269 8.328C54.9843 8.636 54.7603 9.01167 54.597 9.455C54.4383 9.89367 54.359 10.3883 54.359 10.939C54.359 11.5083 54.4383 12.0147 54.597 12.458C54.7603 12.9013 54.9797 13.2747 55.255 13.578C55.5303 13.8813 55.8547 14.1147 56.228 14.278C56.6013 14.4367 57.0027 14.516 57.432 14.516C57.6887 14.516 57.9197 14.502 58.125 14.474C58.335 14.446 58.5263 14.4017 58.699 14.341C58.8763 14.2803 59.042 14.2033 59.196 14.11C59.3547 14.012 59.511 13.893 59.665 13.753C59.7117 13.711 59.7607 13.6783 59.812 13.655C59.8633 13.627 59.9193 13.613 59.98 13.613ZM67.9446 16H67.1676C67.0042 16 66.8759 15.9767 66.7826 15.93C66.6892 15.8787 66.6192 15.7783 66.5726 15.629L66.4186 15.118C66.2366 15.2813 66.0569 15.426 65.8796 15.552C65.7069 15.6733 65.5272 15.776 65.3406 15.86C65.1539 15.944 64.9556 16.007 64.7456 16.049C64.5356 16.091 64.3022 16.112 64.0456 16.112C63.7422 16.112 63.4622 16.0723 63.2056 15.993C62.9489 15.909 62.7272 15.7853 62.5406 15.622C62.3586 15.4587 62.2162 15.2557 62.1136 15.013C62.0109 14.7703 61.9596 14.488 61.9596 14.166C61.9596 13.8953 62.0296 13.6293 62.1696 13.368C62.3142 13.102 62.5522 12.864 62.8836 12.654C63.2149 12.4393 63.6559 12.262 64.2066 12.122C64.7572 11.982 65.4409 11.9027 66.2576 11.884V11.464C66.2576 10.9833 66.1549 10.6287 65.9496 10.4C65.7489 10.1667 65.4549 10.05 65.0676 10.05C64.7876 10.05 64.5542 10.0827 64.3676 10.148C64.1809 10.2133 64.0176 10.288 63.8776 10.372C63.7422 10.4513 63.6162 10.5237 63.4996 10.589C63.3829 10.6543 63.2546 10.687 63.1146 10.687C62.9979 10.687 62.8976 10.6567 62.8136 10.596C62.7296 10.5353 62.6619 10.4607 62.6106 10.372L62.2956 9.819C63.1216 9.063 64.1179 8.685 65.2846 8.685C65.7046 8.685 66.0779 8.755 66.4046 8.895C66.7359 9.03033 67.0159 9.22167 67.2446 9.469C67.4732 9.71167 67.6459 10.0033 67.7626 10.344C67.8839 10.6847 67.9446 11.058 67.9446 11.464V16ZM64.5846 14.922C64.7619 14.922 64.9252 14.9057 65.0746 14.873C65.2239 14.8403 65.3639 14.7913 65.4946 14.726C65.6299 14.6607 65.7582 14.5813 65.8796 14.488C66.0056 14.39 66.1316 14.2757 66.2576 14.145V12.934C65.7536 12.9573 65.3312 13.0017 64.9906 13.067C64.6546 13.1277 64.3839 13.207 64.1786 13.305C63.9732 13.403 63.8262 13.5173 63.7376 13.648C63.6536 13.7787 63.6116 13.921 63.6116 14.075C63.6116 14.3783 63.7002 14.5953 63.8776 14.726C64.0596 14.8567 64.2952 14.922 64.5846 14.922ZM71.4857 5.598V16H69.7567V5.598H71.4857ZM75.2865 5.598V16H73.5575V5.598H75.2865ZM81.5353 8.818V13.382C81.5353 13.8207 81.6356 14.1613 81.8363 14.404C82.0416 14.642 82.3473 14.761 82.7533 14.761C83.052 14.761 83.332 14.6957 83.5933 14.565C83.8546 14.4297 84.102 14.2453 84.3353 14.012V8.818H86.0643V16H85.0073C84.7833 16 84.6363 15.895 84.5663 15.685L84.4473 15.111C84.298 15.2603 84.144 15.398 83.9853 15.524C83.8266 15.6453 83.6563 15.7503 83.4743 15.839C83.297 15.923 83.1033 15.9883 82.8933 16.035C82.688 16.0863 82.4663 16.112 82.2283 16.112C81.8363 16.112 81.4886 16.0467 81.1853 15.916C80.8866 15.7807 80.6346 15.5917 80.4293 15.349C80.224 15.1063 80.0676 14.8193 79.9603 14.488C79.8576 14.152 79.8063 13.7833 79.8063 13.382V8.818H81.5353ZM92.1733 10.218C92.1267 10.2927 92.0777 10.3463 92.0263 10.379C91.975 10.407 91.9097 10.421 91.8303 10.421C91.7463 10.421 91.6553 10.3977 91.5573 10.351C91.464 10.3043 91.3543 10.253 91.2283 10.197C91.1023 10.1363 90.9577 10.0827 90.7943 10.036C90.6357 9.98933 90.4467 9.966 90.2273 9.966C89.8867 9.966 89.6183 10.0383 89.4223 10.183C89.2263 10.3277 89.1283 10.5167 89.1283 10.75C89.1283 10.904 89.1773 11.0347 89.2753 11.142C89.378 11.2447 89.511 11.3357 89.6743 11.415C89.8423 11.4943 90.0313 11.5667 90.2413 11.632C90.4513 11.6927 90.666 11.7603 90.8853 11.835C91.1047 11.9097 91.3193 11.996 91.5293 12.094C91.7393 12.1873 91.926 12.3087 92.0893 12.458C92.2573 12.6027 92.3903 12.7777 92.4883 12.983C92.591 13.1883 92.6423 13.4357 92.6423 13.725C92.6423 14.0703 92.5793 14.39 92.4533 14.684C92.3273 14.9733 92.143 15.2253 91.9003 15.44C91.6577 15.65 91.3567 15.8157 90.9973 15.937C90.6427 16.0537 90.2343 16.112 89.7723 16.112C89.525 16.112 89.2823 16.0887 89.0443 16.042C88.811 16 88.5847 15.9393 88.3653 15.86C88.1507 15.7807 87.95 15.6873 87.7633 15.58C87.5813 15.4727 87.4203 15.356 87.2803 15.23L87.6793 14.572C87.7307 14.4927 87.7913 14.432 87.8613 14.39C87.9313 14.348 88.02 14.327 88.1273 14.327C88.2347 14.327 88.335 14.3573 88.4283 14.418C88.5263 14.4787 88.6383 14.544 88.7643 14.614C88.8903 14.684 89.0373 14.7493 89.2053 14.81C89.378 14.8707 89.595 14.901 89.8563 14.901C90.0617 14.901 90.2367 14.8777 90.3813 14.831C90.5307 14.7797 90.652 14.7143 90.7453 14.635C90.8433 14.5557 90.9133 14.4647 90.9553 14.362C91.002 14.2547 91.0253 14.145 91.0253 14.033C91.0253 13.865 90.974 13.7273 90.8713 13.62C90.7733 13.5127 90.6403 13.4193 90.4723 13.34C90.309 13.2607 90.12 13.1907 89.9053 13.13C89.6953 13.0647 89.4783 12.9947 89.2543 12.92C89.035 12.8453 88.818 12.759 88.6033 12.661C88.3933 12.5583 88.2043 12.43 88.0363 12.276C87.873 12.122 87.74 11.933 87.6373 11.709C87.5393 11.485 87.4903 11.2143 87.4903 10.897C87.4903 10.603 87.5487 10.323 87.6653 10.057C87.782 9.791 87.9523 9.56 88.1763 9.364C88.405 9.16333 88.6873 9.00467 89.0233 8.888C89.364 8.76667 89.756 8.706 90.1993 8.706C90.694 8.706 91.1443 8.78767 91.5503 8.951C91.9563 9.11433 92.2947 9.329 92.5653 9.595L92.1733 10.218Z" fill="white"/>
<path d="M54.601 35.339C54.601 36.623 54.766 37.871 55.096 39.083C55.426 40.289 55.903 41.441 56.527 42.539C56.563 42.605 56.587 42.662 56.599 42.71C56.611 42.758 56.617 42.806 56.617 42.854C56.617 42.938 56.596 43.007 56.554 43.061C56.512 43.115 56.458 43.163 56.392 43.205L55.681 43.637C55.231 42.947 54.847 42.263 54.529 41.585C54.217 40.907 53.962 40.226 53.764 39.542C53.572 38.858 53.431 38.171 53.341 37.481C53.251 36.785 53.206 36.071 53.206 35.339C53.206 34.613 53.251 33.902 53.341 33.206C53.431 32.51 53.572 31.823 53.764 31.145C53.962 30.461 54.217 29.78 54.529 29.102C54.847 28.424 55.231 27.737 55.681 27.041L56.392 27.482C56.458 27.524 56.512 27.572 56.554 27.626C56.596 27.68 56.617 27.749 56.617 27.833C56.617 27.923 56.587 28.025 56.527 28.139C55.897 29.231 55.417 30.383 55.087 31.595C54.763 32.807 54.601 34.055 54.601 35.339ZM65.5235 36.347H67.4765V37.265C67.4765 37.361 67.4465 37.442 67.3865 37.508C67.3325 37.574 67.2455 37.607 67.1255 37.607H65.5235V41H64.1105V37.607H58.3955C58.2755 37.607 58.1705 37.574 58.0805 37.508C57.9965 37.436 57.9425 37.349 57.9185 37.247L57.7565 36.428L64.0295 28.103H65.5235V36.347ZM64.1105 31.028C64.1105 30.872 64.1135 30.704 64.1195 30.524C64.1315 30.344 64.1525 30.158 64.1825 29.966L59.4935 36.347H64.1105V31.028ZM77.7379 34.556C77.7379 35.684 77.6149 36.662 77.3689 37.49C77.1289 38.312 76.7989 38.993 76.3789 39.533C75.9589 40.073 75.4609 40.475 74.8849 40.739C74.3149 41.003 73.7029 41.135 73.0489 41.135C72.3889 41.135 71.7739 41.003 71.2039 40.739C70.6399 40.475 70.1479 40.073 69.7279 39.533C69.3079 38.993 68.9779 38.312 68.7379 37.49C68.4979 36.662 68.3779 35.684 68.3779 34.556C68.3779 33.428 68.4979 32.45 68.7379 31.622C68.9779 30.794 69.3079 30.11 69.7279 29.57C70.1479 29.024 70.6399 28.619 71.2039 28.355C71.7739 28.091 72.3889 27.959 73.0489 27.959C73.7029 27.959 74.3149 28.091 74.8849 28.355C75.4609 28.619 75.9589 29.024 76.3789 29.57C76.7989 30.11 77.1289 30.794 77.3689 31.622C77.6149 32.45 77.7379 33.428 77.7379 34.556ZM76.0729 34.556C76.0729 33.572 75.9889 32.747 75.8209 32.081C75.6589 31.409 75.4369 30.869 75.1549 30.461C74.8789 30.053 74.5579 29.762 74.1919 29.588C73.8259 29.408 73.4449 29.318 73.0489 29.318C72.6529 29.318 72.2719 29.408 71.9059 29.588C71.5399 29.762 71.2189 30.053 70.9429 30.461C70.6669 30.869 70.4449 31.409 70.2769 32.081C70.1149 32.747 70.0339 33.572 70.0339 34.556C70.0339 35.54 70.1149 36.365 70.2769 37.031C70.4449 37.697 70.6669 38.234 70.9429 38.642C71.2189 39.05 71.5399 39.344 71.9059 39.524C72.2719 39.698 72.6529 39.785 73.0489 39.785C73.4449 39.785 73.8259 39.698 74.1919 39.524C74.5579 39.344 74.8789 39.05 75.1549 38.642C75.4369 38.234 75.6589 37.697 75.8209 37.031C75.9889 36.365 76.0729 35.54 76.0729 34.556ZM87.0813 28.805C87.0813 29.033 87.0093 29.222 86.8653 29.372C86.7213 29.516 86.4783 29.588 86.1363 29.588H82.0863L81.4923 32.972C82.1643 32.828 82.7853 32.756 83.3553 32.756C84.0273 32.756 84.6183 32.855 85.1283 33.053C85.6443 33.251 86.0763 33.524 86.4243 33.872C86.7723 34.22 87.0333 34.631 87.2073 35.105C87.3873 35.579 87.4773 36.095 87.4773 36.653C87.4773 37.337 87.3573 37.955 87.1173 38.507C86.8773 39.059 86.5473 39.533 86.1273 39.929C85.7133 40.319 85.2243 40.619 84.6603 40.829C84.0963 41.039 83.4873 41.144 82.8333 41.144C82.4553 41.144 82.0923 41.105 81.7443 41.027C81.3963 40.955 81.0723 40.856 80.7723 40.73C80.4723 40.604 80.1933 40.46 79.9353 40.298C79.6773 40.136 79.4493 39.965 79.2513 39.785L79.7373 39.101C79.8453 38.945 79.9893 38.867 80.1693 38.867C80.2833 38.867 80.4153 38.915 80.5653 39.011C80.7213 39.101 80.9073 39.203 81.1233 39.317C81.3393 39.431 81.5913 39.536 81.8793 39.632C82.1733 39.722 82.5213 39.767 82.9233 39.767C83.3733 39.767 83.7783 39.695 84.1383 39.551C84.4983 39.407 84.8043 39.203 85.0563 38.939C85.3143 38.669 85.5123 38.348 85.6503 37.976C85.7883 37.604 85.8573 37.187 85.8573 36.725C85.8573 36.323 85.7973 35.96 85.6773 35.636C85.5633 35.312 85.3863 35.036 85.1463 34.808C84.9123 34.58 84.6183 34.403 84.2643 34.277C83.9103 34.151 83.4963 34.088 83.0223 34.088C82.6983 34.088 82.3623 34.115 82.0143 34.169C81.6663 34.223 81.3063 34.31 80.9343 34.43L79.9263 34.133L80.9703 28.103H87.0813V28.805ZM91.4027 35.339C91.4027 34.055 91.2377 32.807 90.9077 31.595C90.5837 30.383 90.1067 29.231 89.4767 28.139C89.4167 28.025 89.3867 27.923 89.3867 27.833C89.3867 27.749 89.4077 27.68 89.4497 27.626C89.4917 27.572 89.5457 27.524 89.6117 27.482L90.3227 27.041C90.7727 27.737 91.1537 28.424 91.4657 29.102C91.7837 29.78 92.0387 30.461 92.2307 31.145C92.4287 31.823 92.5727 32.51 92.6627 33.206C92.7527 33.902 92.7977 34.613 92.7977 35.339C92.7977 36.071 92.7527 36.785 92.6627 37.481C92.5727 38.171 92.4287 38.858 92.2307 39.542C92.0387 40.226 91.7837 40.907 91.4657 41.585C91.1537 42.263 90.7727 42.947 90.3227 43.637L89.6117 43.205C89.5457 43.163 89.4917 43.115 89.4497 43.061C89.4077 43.007 89.3867 42.938 89.3867 42.854C89.3867 42.806 89.3927 42.758 89.4047 42.71C89.4167 42.662 89.4407 42.605 89.4767 42.539C90.1007 41.441 90.5777 40.289 90.9077 39.083C91.2377 37.871 91.4027 36.623 91.4027 35.339ZM106.4 28.805C106.4 29.033 106.328 29.222 106.184 29.372C106.04 29.516 105.797 29.588 105.455 29.588H101.405L100.811 32.972C101.483 32.828 102.104 32.756 102.674 32.756C103.346 32.756 103.937 32.855 104.447 33.053C104.963 33.251 105.395 33.524 105.743 33.872C106.091 34.22 106.352 34.631 106.526 35.105C106.706 35.579 106.796 36.095 106.796 36.653C106.796 37.337 106.676 37.955 106.436 38.507C106.196 39.059 105.866 39.533 105.446 39.929C105.032 40.319 104.543 40.619 103.979 40.829C103.415 41.039 102.806 41.144 102.152 41.144C101.774 41.144 101.411 41.105 101.063 41.027C100.715 40.955 100.391 40.856 100.091 40.73C99.7907 40.604 99.5117 40.46 99.2537 40.298C98.9957 40.136 98.7677 39.965 98.5697 39.785L99.0557 39.101C99.1637 38.945 99.3077 38.867 99.4877 38.867C99.6017 38.867 99.7337 38.915 99.8837 39.011C100.04 39.101 100.226 39.203 100.442 39.317C100.658 39.431 100.91 39.536 101.198 39.632C101.492 39.722 101.84 39.767 102.242 39.767C102.692 39.767 103.097 39.695 103.457 39.551C103.817 39.407 104.123 39.203 104.375 38.939C104.633 38.669 104.831 38.348 104.969 37.976C105.107 37.604 105.176 37.187 105.176 36.725C105.176 36.323 105.116 35.96 104.996 35.636C104.882 35.312 104.705 35.036 104.465 34.808C104.231 34.58 103.937 34.403 103.583 34.277C103.229 34.151 102.815 34.088 102.341 34.088C102.017 34.088 101.681 34.115 101.333 34.169C100.985 34.223 100.625 34.31 100.253 34.43L99.2447 34.133L100.289 28.103H106.4V28.805ZM116.841 28.805C116.841 29.033 116.769 29.222 116.625 29.372C116.481 29.516 116.238 29.588 115.896 29.588H111.846L111.252 32.972C111.924 32.828 112.545 32.756 113.115 32.756C113.787 32.756 114.378 32.855 114.888 33.053C115.404 33.251 115.836 33.524 116.184 33.872C116.532 34.22 116.793 34.631 116.967 35.105C117.147 35.579 117.237 36.095 117.237 36.653C117.237 37.337 117.117 37.955 116.877 38.507C116.637 39.059 116.307 39.533 115.887 39.929C115.473 40.319 114.984 40.619 114.42 40.829C113.856 41.039 113.247 41.144 112.593 41.144C112.215 41.144 111.852 41.105 111.504 41.027C111.156 40.955 110.832 40.856 110.532 40.73C110.232 40.604 109.953 40.46 109.695 40.298C109.437 40.136 109.209 39.965 109.011 39.785L109.497 39.101C109.605 38.945 109.749 38.867 109.929 38.867C110.043 38.867 110.175 38.915 110.325 39.011C110.481 39.101 110.667 39.203 110.883 39.317C111.099 39.431 111.351 39.536 111.639 39.632C111.933 39.722 112.281 39.767 112.683 39.767C113.133 39.767 113.538 39.695 113.898 39.551C114.258 39.407 114.564 39.203 114.816 38.939C115.074 38.669 115.272 38.348 115.41 37.976C115.548 37.604 115.617 37.187 115.617 36.725C115.617 36.323 115.557 35.96 115.437 35.636C115.323 35.312 115.146 35.036 114.906 34.808C114.672 34.58 114.378 34.403 114.024 34.277C113.67 34.151 113.256 34.088 112.782 34.088C112.458 34.088 112.122 34.115 111.774 34.169C111.426 34.223 111.066 34.31 110.694 34.43L109.686 34.133L110.73 28.103H116.841V28.805ZM127.282 28.805C127.282 29.033 127.21 29.222 127.066 29.372C126.922 29.516 126.679 29.588 126.337 29.588H122.287L121.693 32.972C122.365 32.828 122.986 32.756 123.556 32.756C124.228 32.756 124.819 32.855 125.329 33.053C125.845 33.251 126.277 33.524 126.625 33.872C126.973 34.22 127.234 34.631 127.408 35.105C127.588 35.579 127.678 36.095 127.678 36.653C127.678 37.337 127.558 37.955 127.318 38.507C127.078 39.059 126.748 39.533 126.328 39.929C125.914 40.319 125.425 40.619 124.861 40.829C124.297 41.039 123.688 41.144 123.034 41.144C122.656 41.144 122.293 41.105 121.945 41.027C121.597 40.955 121.273 40.856 120.973 40.73C120.673 40.604 120.394 40.46 120.136 40.298C119.878 40.136 119.65 39.965 119.452 39.785L119.938 39.101C120.046 38.945 120.19 38.867 120.37 38.867C120.484 38.867 120.616 38.915 120.766 39.011C120.922 39.101 121.108 39.203 121.324 39.317C121.54 39.431 121.792 39.536 122.08 39.632C122.374 39.722 122.722 39.767 123.124 39.767C123.574 39.767 123.979 39.695 124.339 39.551C124.699 39.407 125.005 39.203 125.257 38.939C125.515 38.669 125.713 38.348 125.851 37.976C125.989 37.604 126.058 37.187 126.058 36.725C126.058 36.323 125.998 35.96 125.878 35.636C125.764 35.312 125.587 35.036 125.347 34.808C125.113 34.58 124.819 34.403 124.465 34.277C124.111 34.151 123.697 34.088 123.223 34.088C122.899 34.088 122.563 34.115 122.215 34.169C121.867 34.223 121.507 34.31 121.135 34.43L120.127 34.133L121.171 28.103H127.282V28.805ZM129.822 34.925H134.268V36.284H129.822V34.925ZM145.062 34.556C145.062 35.684 144.939 36.662 144.693 37.49C144.453 38.312 144.123 38.993 143.703 39.533C143.283 40.073 142.785 40.475 142.209 40.739C141.639 41.003 141.027 41.135 140.373 41.135C139.713 41.135 139.098 41.003 138.528 40.739C137.964 40.475 137.472 40.073 137.052 39.533C136.632 38.993 136.302 38.312 136.062 37.49C135.822 36.662 135.702 35.684 135.702 34.556C135.702 33.428 135.822 32.45 136.062 31.622C136.302 30.794 136.632 30.11 137.052 29.57C137.472 29.024 137.964 28.619 138.528 28.355C139.098 28.091 139.713 27.959 140.373 27.959C141.027 27.959 141.639 28.091 142.209 28.355C142.785 28.619 143.283 29.024 143.703 29.57C144.123 30.11 144.453 30.794 144.693 31.622C144.939 32.45 145.062 33.428 145.062 34.556ZM143.397 34.556C143.397 33.572 143.313 32.747 143.145 32.081C142.983 31.409 142.761 30.869 142.479 30.461C142.203 30.053 141.882 29.762 141.516 29.588C141.15 29.408 140.769 29.318 140.373 29.318C139.977 29.318 139.596 29.408 139.23 29.588C138.864 29.762 138.543 30.053 138.267 30.461C137.991 30.869 137.769 31.409 137.601 32.081C137.439 32.747 137.358 33.572 137.358 34.556C137.358 35.54 137.439 36.365 137.601 37.031C137.769 37.697 137.991 38.234 138.267 38.642C138.543 39.05 138.864 39.344 139.23 39.524C139.596 39.698 139.977 39.785 140.373 39.785C140.769 39.785 141.15 39.698 141.516 39.524C141.882 39.344 142.203 39.05 142.479 38.642C142.761 38.234 142.983 37.697 143.145 37.031C143.313 36.365 143.397 35.54 143.397 34.556ZM148.187 39.776H150.959V30.983C150.959 30.719 150.968 30.452 150.986 30.182L148.682 32.153C148.622 32.201 148.562 32.237 148.502 32.261C148.442 32.279 148.385 32.288 148.331 32.288C148.241 32.288 148.16 32.27 148.088 32.234C148.016 32.192 147.962 32.144 147.926 32.09L147.422 31.397L151.256 28.076H152.561V39.776H155.099V41H148.187V39.776ZM161.454 27.959C162 27.959 162.51 28.04 162.984 28.202C163.458 28.364 163.866 28.601 164.208 28.913C164.556 29.219 164.829 29.594 165.027 30.038C165.225 30.482 165.324 30.986 165.324 31.55C165.324 32.03 165.252 32.474 165.108 32.882C164.964 33.29 164.769 33.683 164.523 34.061C164.277 34.433 163.992 34.796 163.668 35.15C163.35 35.498 163.011 35.855 162.651 36.221L159.258 39.695C159.498 39.629 159.741 39.578 159.987 39.542C160.233 39.5 160.47 39.479 160.698 39.479H165.018C165.192 39.479 165.33 39.53 165.432 39.632C165.534 39.734 165.585 39.866 165.585 40.028V41H156.981V40.451C156.981 40.337 157.002 40.22 157.044 40.1C157.092 39.98 157.167 39.869 157.269 39.767L161.4 35.618C161.742 35.27 162.054 34.937 162.336 34.619C162.618 34.295 162.858 33.971 163.056 33.647C163.26 33.323 163.416 32.996 163.524 32.666C163.632 32.33 163.686 31.973 163.686 31.595C163.686 31.217 163.626 30.887 163.506 30.605C163.386 30.317 163.221 30.08 163.011 29.894C162.801 29.708 162.555 29.57 162.273 29.48C161.991 29.384 161.688 29.336 161.364 29.336C161.04 29.336 160.74 29.384 160.464 29.48C160.188 29.576 159.942 29.711 159.726 29.885C159.516 30.053 159.336 30.254 159.186 30.488C159.042 30.722 158.94 30.98 158.88 31.262C158.832 31.436 158.76 31.562 158.664 31.64C158.568 31.718 158.442 31.757 158.286 31.757C158.256 31.757 158.223 31.757 158.187 31.757C158.157 31.751 158.121 31.745 158.079 31.739L157.242 31.595C157.326 31.007 157.488 30.488 157.728 30.038C157.968 29.582 158.271 29.201 158.637 28.895C159.009 28.589 159.432 28.358 159.906 28.202C160.386 28.04 160.902 27.959 161.454 27.959ZM171.697 41.144C171.055 41.144 170.467 41.06 169.933 40.892C169.399 40.718 168.94 40.472 168.556 40.154C168.172 39.836 167.875 39.452 167.665 39.002C167.455 38.546 167.35 38.036 167.35 37.472C167.35 36.644 167.566 35.963 167.998 35.429C168.43 34.889 169.048 34.505 169.852 34.277C169.174 34.025 168.661 33.65 168.313 33.152C167.971 32.648 167.8 32.048 167.8 31.352C167.8 30.878 167.893 30.434 168.079 30.02C168.265 29.606 168.529 29.246 168.871 28.94C169.213 28.634 169.621 28.394 170.095 28.22C170.575 28.046 171.109 27.959 171.697 27.959C172.279 27.959 172.81 28.046 173.29 28.22C173.77 28.394 174.181 28.634 174.523 28.94C174.865 29.246 175.129 29.606 175.315 30.02C175.501 30.434 175.594 30.878 175.594 31.352C175.594 32.048 175.42 32.648 175.072 33.152C174.724 33.65 174.214 34.025 173.542 34.277C174.346 34.505 174.964 34.889 175.396 35.429C175.828 35.963 176.044 36.644 176.044 37.472C176.044 38.036 175.936 38.546 175.72 39.002C175.51 39.452 175.213 39.836 174.829 40.154C174.451 40.472 173.995 40.718 173.461 40.892C172.927 41.06 172.339 41.144 171.697 41.144ZM171.697 39.866C172.117 39.866 172.492 39.809 172.822 39.695C173.158 39.575 173.44 39.41 173.668 39.2C173.902 38.984 174.079 38.729 174.199 38.435C174.325 38.135 174.388 37.805 174.388 37.445C174.388 37.001 174.313 36.623 174.163 36.311C174.019 35.993 173.821 35.735 173.569 35.537C173.323 35.339 173.038 35.195 172.714 35.105C172.39 35.009 172.051 34.961 171.697 34.961C171.343 34.961 171.004 35.009 170.68 35.105C170.356 35.195 170.068 35.339 169.816 35.537C169.57 35.735 169.372 35.993 169.222 36.311C169.078 36.623 169.006 37.001 169.006 37.445C169.006 37.805 169.066 38.135 169.186 38.435C169.312 38.729 169.489 38.984 169.717 39.2C169.951 39.41 170.233 39.575 170.563 39.695C170.899 39.809 171.277 39.866 171.697 39.866ZM171.697 33.674C172.117 33.674 172.474 33.611 172.768 33.485C173.068 33.353 173.311 33.182 173.497 32.972C173.683 32.756 173.818 32.51 173.902 32.234C173.986 31.958 174.028 31.673 174.028 31.379C174.028 31.079 173.977 30.797 173.875 30.533C173.779 30.269 173.632 30.038 173.434 29.84C173.242 29.642 172.999 29.486 172.705 29.372C172.417 29.258 172.081 29.201 171.697 29.201C171.313 29.201 170.974 29.258 170.68 29.372C170.392 29.486 170.149 29.642 169.951 29.84C169.759 30.038 169.612 30.269 169.51 30.533C169.414 30.797 169.366 31.079 169.366 31.379C169.366 31.673 169.408 31.958 169.492 32.234C169.576 32.51 169.711 32.756 169.897 32.972C170.083 33.182 170.323 33.353 170.617 33.485C170.917 33.611 171.277 33.674 171.697 33.674Z" fill="white"/>
</svg>
